<?xml version="1.0" encoding="utf-8"?>
<!-- Generator: Adobe Illustrator 19.0.0, SVG Export Plug-In . SVG Version: 6.00 Build 0)  -->
<svg version="1.1" id="Layer_1" xmlns="http://www.w3.org/2000/svg" xmlns:xlink="http://www.w3.org/1999/xlink" x="0px" y="0px"
	 width="1400px" height="980px" viewBox="0 0 1400 980" enable-background="new 0 0 1400 980" xml:space="preserve">
<g id="XMLID_2_">
	<g id="XMLID_416_">
		<path id="XMLID_433_" fill="#FFCD40" d="M592.7,781.7c-0.5,0-1.1-0.1-1.6-0.3c-68.6-25.7-126.2-75.2-162.1-139.3
			c-3.2-5.7-6.1-11.4-8.8-17c-9.3-19.3-16.6-39.6-21.7-60.4c-5.8-23.6-8.8-48-8.9-72.5c0-0.5,0-1,0-1.5c0-74,26.4-145.6,74.5-201.7
			c47.5-55.5,113.1-92.6,184.8-104.4c16.8-2.8,33.9-4.2,51-4.2c19.7,0,39.3,1.9,58.5,5.5c40,7.6,77.6,22.9,111.8,45.3
			c33.5,22,62,49.9,84.9,82.8c19.5,28.1,34.1,59,43.5,91.8c5.4,19.1,9,38.8,10.7,58.7c0.7,8.6,1.1,17.4,1.1,26.2
			c0,22.4-2.4,44.7-7.1,66.4c-11,50.6-34.9,98-69.1,137.3c-33.9,38.9-77.2,69-125.3,87c-0.5,0.2-1,0.3-1.6,0.3H592.7z"/>
		<g id="XMLID_429_">
			<path id="XMLID_430_" fill="#294563" d="M700,185c19.7,0,39,1.9,57.6,5.4c80,15.3,149,61.7,193.8,126.2
				c18.9,27.3,33.5,57.8,42.8,90.5c5.3,18.6,8.9,37.9,10.5,57.8c0.7,8.5,1.1,17.2,1.1,25.9c0,22.5-2.4,44.4-7,65.4
				c-22.2,102-95.4,185-191.5,221H592.7c-68.1-25.5-124.6-74.6-159.7-137.3c-3.1-5.5-6-11-8.7-16.7c-9.1-18.9-16.3-38.8-21.4-59.6
				c-5.6-22.9-8.6-46.8-8.7-71.4c0-0.5,0-1,0-1.5c0-151.8,110.6-277.7,255.5-301.7C666.1,186.4,682.9,185,700,185 M700,176
				c-17.4,0-34.8,1.4-51.8,4.2c-72.7,12-139.3,49.7-187.5,106c-23.9,27.9-42.5,59.4-55.4,93.7c-13.3,35.4-20.1,72.8-20.1,111
				c0,0.5,0,1.1,0,1.6c0.1,24.8,3.1,49.6,9,73.5c5.2,21.1,12.6,41.7,22,61.3c2.7,5.6,5.7,11.4,8.9,17.2
				c36.4,65.1,94.8,115.3,164.4,141.3c1,0.4,2.1,0.6,3.2,0.6h214.6c1.1,0,2.1-0.2,3.2-0.6c48.8-18.3,92.7-48.8,127.1-88.3
				c34.6-39.8,58.9-87.9,70.1-139.2c4.8-22,7.2-44.7,7.2-67.4c0-8.9-0.4-17.9-1.1-26.6c-1.7-20.1-5.3-40.1-10.8-59.5
				c-9.5-33.3-24.3-64.6-44.1-93.2c-23.2-33.4-52.2-61.7-86.1-84c-34.6-22.8-72.8-38.2-113.4-46C739.9,177.8,719.9,176,700,176
				L700,176z"/>
		</g>
	</g>
	<path id="XMLID_54_" opacity="0.5" fill="#FFDF78" d="M1004.7,464.9C830.7,587,541.2,616.3,424.3,623.2
		c-9.1-18.9-16.3-38.8-21.4-59.6c-5.6-22.9-8.6-46.8-8.7-71.4c276-4.4,469.6-113.9,557.2-175.6c18.9,27.3,33.5,57.8,42.8,90.5
		C999.5,425.7,1003.1,445,1004.7,464.9z"/>
	<path id="XMLID_77_" fill="#FFBB10" d="M1005.8,490.8c0,22.5-2.4,44.4-7,65.5c-22.2,102-95.4,185-191.5,221H592.7
		c-68.1-25.5-124.6-74.6-159.7-137.3c-13.2-23.7-23.4-49.3-30-76.3c336.1,8.9,511.8-90,591.3-156.6
		C1001.8,433.7,1005.8,461.8,1005.8,490.8z"/>
	<g id="XMLID_413_">
		
			<path id="XMLID_437_" fill="none" stroke="#294563" stroke-width="9" stroke-linecap="round" stroke-linejoin="round" stroke-miterlimit="10" d="
			M531.1,367.6c11.6,0.6,23.2,3.7,33.7,9.2"/>
		
			<path id="XMLID_438_" fill="none" stroke="#294563" stroke-width="9" stroke-linecap="round" stroke-linejoin="round" stroke-miterlimit="10" d="
			M467.1,507.8c-6.4-6.6-11.4-13.9-15.2-21.7c-5.2-10.7-7.9-22.4-8.1-34c-0.5-22.2,7.9-44.6,25.2-61.3c13-12.6,29.1-20.1,45.7-22.5"
			/>
		
			<path id="XMLID_340_" fill="none" stroke="#294563" stroke-width="9" stroke-linecap="round" stroke-linejoin="round" stroke-miterlimit="10" d="
			M599.6,411.1c5.5,10.2,8.6,21.3,9.5,32.5c0,0.1,0,0.1,0,0.2c1.8,23.7-6.5,48-24.9,65.9c-18.4,17.8-43,25.4-66.6,22.8
			c-0.1,0-0.1,0-0.2,0"/>
	</g>
	<g id="XMLID_43_">
		
			<path id="XMLID_46_" fill="none" stroke="#294563" stroke-width="9" stroke-linecap="round" stroke-linejoin="round" stroke-miterlimit="10" d="
			M787,431.7c0-9.1,1.5-17.9,4.2-26.1c3.8-11.3,9.9-21.5,17.8-30.1c15.1-16.3,36.7-26.5,60.7-26.5c18.1,0,34.9,5.8,48.5,15.7"/>
		
			<path id="XMLID_45_" fill="none" stroke="#294563" stroke-width="9" stroke-linecap="round" stroke-linejoin="round" stroke-miterlimit="10" d="
			M949.4,454.4c-3.2,11.1-8.6,21.3-15.8,30c0,0-0.1,0.1-0.1,0.1c-15.2,18.3-38.1,30-63.7,30s-48.6-11.7-63.7-30c0,0-0.1-0.1-0.1-0.1
			"/>
	</g>
	<g id="XMLID_23_">
		<g id="XMLID_156_">
			<path id="XMLID_406_" fill="#009FC4" d="M844.8,495.5c-2.5,0-4.5-2-4.5-4.5v-47.8c0-1.4,0.6-2.7,1.7-3.5c0.8-0.6,1.8-1,2.8-1
				c0.3,0,0.6,0,1,0.1l72.5,16.1c2.1,0.5,3.5,2.3,3.5,4.4V491c0,2.5-2,4.5-4.5,4.5H844.8z"/>
			<path id="XMLID_402_" fill="#294563" d="M844.8,443.2l23.4,5.2l49.2,10.9V491h-72.5V443.2 M844.8,434.2c-2,0-4,0.7-5.6,2
				c-2.1,1.7-3.4,4.3-3.4,7V491c0,5,4,9,9,9h72.5c5,0,9-4,9-9v-31.8c0-4.2-2.9-7.9-7.1-8.8l-49.2-10.9l-23.4-5.2
				C846.1,434.3,845.5,434.2,844.8,434.2L844.8,434.2z"/>
		</g>
		<polygon id="XMLID_152_" fill="#FFCC3B" points="844.8,443.2 844.8,491 868.2,491 868.2,448.4 		"/>
		
			<line id="XMLID_144_" fill="#0E8BAD" stroke="#294563" stroke-width="9" stroke-linecap="round" stroke-linejoin="round" stroke-miterlimit="10" x1="872" y1="443.2" x2="872" y2="394.5"/>
		<g id="XMLID_173_">
			<path id="XMLID_415_" fill="#009FC4" d="M833.9,780.9c-2.5,0-4.5-2-4.5-4.5V491c0-2.5,2-4.5,4.5-4.5h108.8c2.5,0,4.5,2,4.5,4.5
				v285.4c0,2.5-2,4.5-4.5,4.5H833.9z"/>
			<g id="XMLID_408_">
				<path id="XMLID_409_" fill="#294563" d="M942.8,491v285.4H833.9V491H942.8 M942.8,482H833.9c-5,0-9,4-9,9v285.4c0,5,4,9,9,9
					h108.8c5,0,9-4,9-9V491C951.8,486,947.7,482,942.8,482L942.8,482z"/>
			</g>
		</g>
		<rect id="XMLID_154_" x="833.9" y="491" fill="#FFCC3B" width="21.7" height="285.4"/>
		
			<line id="XMLID_40_" fill="none" stroke="#294563" stroke-width="9" stroke-linecap="round" stroke-linejoin="round" stroke-miterlimit="10" x1="924.6" y1="514.1" x2="852" y2="514.1"/>
		
			<line id="XMLID_143_" fill="none" stroke="#294563" stroke-width="9" stroke-linecap="round" stroke-linejoin="round" stroke-miterlimit="10" x1="924.6" y1="540.9" x2="852" y2="540.9"/>
		
			<line id="XMLID_148_" fill="none" stroke="#294563" stroke-width="9" stroke-linecap="round" stroke-linejoin="round" stroke-miterlimit="10" x1="924.6" y1="567.6" x2="852" y2="567.6"/>
		
			<line id="XMLID_153_" fill="none" stroke="#294563" stroke-width="9" stroke-linecap="round" stroke-linejoin="round" stroke-miterlimit="10" x1="924.6" y1="594.4" x2="852" y2="594.4"/>
		
			<line id="XMLID_162_" fill="none" stroke="#294563" stroke-width="9" stroke-linecap="round" stroke-linejoin="round" stroke-miterlimit="10" x1="924.6" y1="621.2" x2="852" y2="621.2"/>
		
			<line id="XMLID_177_" fill="none" stroke="#294563" stroke-width="9" stroke-linecap="round" stroke-linejoin="round" stroke-miterlimit="10" x1="924.6" y1="647.9" x2="852" y2="647.9"/>
		
			<line id="XMLID_186_" fill="none" stroke="#294563" stroke-width="9" stroke-linecap="round" stroke-linejoin="round" stroke-miterlimit="10" x1="924.6" y1="674.7" x2="852" y2="674.7"/>
		
			<line id="XMLID_189_" fill="none" stroke="#294563" stroke-width="9" stroke-linecap="round" stroke-linejoin="round" stroke-miterlimit="10" x1="924.6" y1="701.5" x2="852" y2="701.5"/>
		
			<line id="XMLID_192_" fill="none" stroke="#294563" stroke-width="9" stroke-linecap="round" stroke-linejoin="round" stroke-miterlimit="10" x1="924.6" y1="728.3" x2="852" y2="728.3"/>
	</g>
	<g id="XMLID_161_">
		<g id="XMLID_373_">
			<path id="XMLID_376_" fill="#E8EBF3" d="M761.8,782.2c-2.5,0-4.5-2-4.5-4.5v-95.6c0-2.5,2-4.5,4.5-4.5h313.5c2.5,0,4.5,2,4.5,4.5
				v95.6c0,2.5-2,4.5-4.5,4.5H761.8z"/>
			<path id="XMLID_370_" fill="#294563" d="M1075.3,682.1v95.6H761.8v-95.6H1075.3 M1075.3,673.1H761.8c-5,0-9,4-9,9v95.6
				c0,5,4,9,9,9h313.5c5,0,9-4,9-9v-95.6C1084.3,677.1,1080.2,673.1,1075.3,673.1L1075.3,673.1z"/>
		</g>
		<rect id="XMLID_362_" x="897.7" y="690.9" fill="#C2C6CC" width="12.3" height="86.8"/>
		<path id="XMLID_181_" fill="#C2C6CC" d="M827,697.6c-31.8,3.7-36.4,61.2-37.1,80.1h-28.2v-95.6h26.7L827,697.6z"/>
		<rect id="XMLID_386_" x="761.8" y="682.1" fill="#C2C6CC" width="313.5" height="17.6"/>
		<g id="XMLID_164_">
			<path id="XMLID_360_" fill="#E8EBF3" d="M859.3,782.2c-2.5,0-4.5-2-4.5-4.5v-91c0-2.5,2-4.5,4.5-4.5h29c2.5,0,4.5,2,4.5,4.5v91
				c0,2.5-2,4.5-4.5,4.5H859.3z"/>
			<path id="XMLID_356_" fill="#294563" d="M888.3,686.7v91h-29v-91H888.3 M888.3,677.7h-29c-5,0-9,4-9,9v91c0,5,4,9,9,9h29
				c5,0,9-4,9-9v-91C897.3,681.7,893.3,677.7,888.3,677.7L888.3,677.7z"/>
		</g>
		<g id="XMLID_400_">
			<path id="XMLID_368_" fill="#E8EBF3" d="M869.8,675.8c-2.5,0-4.5-2-4.5-4.5c0-57.9,47.1-105,105-105c2.4,0,4.9,0.1,7.3,0.3
				c54.8,3.8,97.7,49.8,97.7,104.7c0,2.5-2,4.5-4.5,4.5H869.8z"/>
			<g id="XMLID_364_">
				<path id="XMLID_365_" fill="#294563" d="M970.3,570.8c2.4,0,4.7,0.1,7,0.2c52.2,3.6,93.5,47.1,93.5,100.2h-201
					C869.8,615.8,914.8,570.8,970.3,570.8 M970.3,561.8c-29.2,0-56.7,11.4-77.4,32.1c-20.7,20.7-32.1,48.2-32.1,77.4c0,5,4,9,9,9
					h201c5,0,9-4,9-9c0-27.9-10.5-54.5-29.6-74.9c-19-20.3-44.7-32.5-72.3-34.4C975.4,561.9,972.9,561.8,970.3,561.8L970.3,561.8z"
					/>
			</g>
		</g>
		<path id="XMLID_398_" fill="#FFCC3B" d="M869.8,671.3h14c21.2-94.3,91.3-100.1,93.5-100.2c-2.3-0.2-4.6-0.2-7-0.2
			C914.8,570.8,869.8,615.8,869.8,671.3z"/>
		<g id="XMLID_160_">
			<path id="XMLID_339_" fill="#E8EBF3" d="M744.3,686.6c-2.5,0-4.5-2-4.5-4.5v-11.2c0-2.5,2-4.5,4.5-4.5h343c2.5,0,4.5,2,4.5,4.5
				v11.2c0,2.5-2,4.5-4.5,4.5H744.3z"/>
			<path id="XMLID_335_" fill="#294563" d="M1087.3,670.9v11.2h-343v-11.2H1087.3 M1087.3,661.9h-343c-5,0-9,4-9,9v11.2c0,5,4,9,9,9
				h343c5,0,9-4,9-9v-11.2C1096.3,665.9,1092.2,661.9,1087.3,661.9L1087.3,661.9z"/>
		</g>
		
			<line id="XMLID_171_" fill="none" stroke="#294563" stroke-width="9" stroke-linecap="round" stroke-linejoin="round" stroke-miterlimit="10" x1="1035.8" y1="777.7" x2="1035.8" y2="729.9"/>
		
			<line id="XMLID_172_" fill="none" stroke="#294563" stroke-width="9" stroke-linecap="round" stroke-linejoin="round" stroke-miterlimit="10" x1="1005.2" y1="777.7" x2="1005.2" y2="729.9"/>
		
			<line id="XMLID_174_" fill="none" stroke="#294563" stroke-width="9" stroke-linecap="round" stroke-linejoin="round" stroke-miterlimit="10" x1="974.5" y1="777.7" x2="974.5" y2="729.9"/>
		
			<line id="XMLID_203_" fill="none" stroke="#294563" stroke-width="9" stroke-linecap="round" stroke-linejoin="round" stroke-miterlimit="10" x1="943.8" y1="777.7" x2="943.8" y2="729.9"/>
		
			<line id="XMLID_229_" fill="#E8EBF3" stroke="#294563" stroke-width="9" stroke-linecap="round" stroke-linejoin="round" stroke-miterlimit="10" x1="970.3" y1="563.3" x2="970.3" y2="543.7"/>
		<g id="XMLID_169_">
			
				<line id="XMLID_230_" fill="#E8EBF3" stroke="#294563" stroke-width="9" stroke-linecap="round" stroke-linejoin="round" stroke-miterlimit="10" x1="832.8" y1="706.7" x2="820.8" y2="706.7"/>
			
				<line id="XMLID_253_" fill="#E8EBF3" stroke="#294563" stroke-width="9" stroke-linecap="round" stroke-linejoin="round" stroke-miterlimit="10" x1="832.8" y1="724.7" x2="820.8" y2="724.7"/>
			
				<line id="XMLID_257_" fill="#E8EBF3" stroke="#294563" stroke-width="9" stroke-linecap="round" stroke-linejoin="round" stroke-miterlimit="10" x1="832.8" y1="742.7" x2="820.8" y2="742.7"/>
			
				<line id="XMLID_258_" fill="#E8EBF3" stroke="#294563" stroke-width="9" stroke-linecap="round" stroke-linejoin="round" stroke-miterlimit="10" x1="832.8" y1="760.7" x2="820.8" y2="760.7"/>
		</g>
		<g id="XMLID_358_">
			
				<line id="XMLID_395_" fill="#E8EBF3" stroke="#294563" stroke-width="9" stroke-linecap="round" stroke-linejoin="round" stroke-miterlimit="10" x1="801.8" y1="706.7" x2="789.8" y2="706.7"/>
			
				<line id="XMLID_375_" fill="#E8EBF3" stroke="#294563" stroke-width="9" stroke-linecap="round" stroke-linejoin="round" stroke-miterlimit="10" x1="801.8" y1="724.7" x2="789.8" y2="724.7"/>
			
				<line id="XMLID_374_" fill="#E8EBF3" stroke="#294563" stroke-width="9" stroke-linecap="round" stroke-linejoin="round" stroke-miterlimit="10" x1="801.8" y1="742.7" x2="789.8" y2="742.7"/>
		</g>
	</g>
	<g id="XMLID_165_">
		<g id="XMLID_166_">
			<g id="XMLID_348_">
				<path id="XMLID_354_" fill="#009FC4" d="M529.6,520.6c-2.5,0-4.5-2-4.5-4.5v-36.7c0-2.5,2-4.5,4.5-4.5h62.9c2.5,0,4.5,2,4.5,4.5
					v36.7c0,2.5-2,4.5-4.5,4.5H529.6z"/>
				<g id="XMLID_350_">
					<path id="XMLID_351_" fill="#294563" d="M592.6,479.4v36.7h-62.9v-36.7H592.6 M592.6,470.4h-62.9c-5,0-9,4-9,9v36.7
						c0,5,4,9,9,9h62.9c5,0,9-4,9-9v-36.7C601.6,474.4,597.5,470.4,592.6,470.4L592.6,470.4z"/>
				</g>
			</g>
			<rect id="XMLID_345_" x="579.2" y="479.4" fill="#FFCC3B" width="13.3" height="29.6"/>
			<g id="XMLID_167_">
				<g id="XMLID_337_">
					<path id="XMLID_347_" fill="#009FC4" d="M513.1,780.9c-2.5,0-4.5-2-4.5-4.5V516.1c0-2.5,2-4.5,4.5-4.5h99.3
						c2.5,0,4.5,2,4.5,4.5v260.3c0,2.5-2,4.5-4.5,4.5H513.1z"/>
					<g id="XMLID_342_">
						<path id="XMLID_343_" fill="#294563" d="M612.3,516.1v260.3h-99.3V516.1H612.3 M612.3,507.1h-99.3c-5,0-9,4-9,9v260.3
							c0,5,4,9,9,9h99.3c5,0,9-4,9-9V516.1C621.3,511.1,617.3,507.1,612.3,507.1L612.3,507.1z"/>
					</g>
				</g>
				<rect id="XMLID_334_" x="592.6" y="516.1" fill="#FFCC3B" width="19.8" height="260.3"/>
				
					<line id="XMLID_331_" fill="none" stroke="#294563" stroke-width="9" stroke-linecap="round" stroke-linejoin="round" stroke-miterlimit="10" x1="529.6" y1="537.2" x2="546.2" y2="537.2"/>
				
					<line id="XMLID_328_" fill="none" stroke="#294563" stroke-width="9" stroke-linecap="round" stroke-linejoin="round" stroke-miterlimit="10" x1="529.6" y1="561.6" x2="546.2" y2="561.6"/>
				
					<line id="XMLID_325_" fill="none" stroke="#294563" stroke-width="9" stroke-linecap="round" stroke-linejoin="round" stroke-miterlimit="10" x1="529.6" y1="586" x2="546.2" y2="586"/>
				
					<line id="XMLID_322_" fill="none" stroke="#294563" stroke-width="9" stroke-linecap="round" stroke-linejoin="round" stroke-miterlimit="10" x1="529.6" y1="610.4" x2="546.2" y2="610.4"/>
				
					<line id="XMLID_319_" fill="none" stroke="#294563" stroke-width="9" stroke-linecap="round" stroke-linejoin="round" stroke-miterlimit="10" x1="529.6" y1="634.8" x2="546.2" y2="634.8"/>
				
					<line id="XMLID_316_" fill="none" stroke="#294563" stroke-width="9" stroke-linecap="round" stroke-linejoin="round" stroke-miterlimit="10" x1="529.6" y1="659.3" x2="546.2" y2="659.3"/>
				
					<line id="XMLID_313_" fill="none" stroke="#294563" stroke-width="9" stroke-linecap="round" stroke-linejoin="round" stroke-miterlimit="10" x1="529.6" y1="683.7" x2="546.2" y2="683.7"/>
				
					<line id="XMLID_310_" fill="none" stroke="#294563" stroke-width="9" stroke-linecap="round" stroke-linejoin="round" stroke-miterlimit="10" x1="529.6" y1="708.1" x2="546.2" y2="708.1"/>
				
					<line id="XMLID_307_" fill="none" stroke="#294563" stroke-width="9" stroke-linecap="round" stroke-linejoin="round" stroke-miterlimit="10" x1="529.6" y1="732.5" x2="546.2" y2="732.5"/>
				
					<line id="XMLID_304_" fill="none" stroke="#294563" stroke-width="9" stroke-linecap="round" stroke-linejoin="round" stroke-miterlimit="10" x1="566.2" y1="537.2" x2="582.8" y2="537.2"/>
				
					<line id="XMLID_301_" fill="none" stroke="#294563" stroke-width="9" stroke-linecap="round" stroke-linejoin="round" stroke-miterlimit="10" x1="566.2" y1="561.6" x2="582.8" y2="561.6"/>
				
					<line id="XMLID_298_" fill="none" stroke="#294563" stroke-width="9" stroke-linecap="round" stroke-linejoin="round" stroke-miterlimit="10" x1="566.2" y1="586" x2="582.8" y2="586"/>
				
					<line id="XMLID_295_" fill="none" stroke="#294563" stroke-width="9" stroke-linecap="round" stroke-linejoin="round" stroke-miterlimit="10" x1="566.2" y1="610.4" x2="582.8" y2="610.4"/>
				
					<line id="XMLID_205_" fill="none" stroke="#294563" stroke-width="9" stroke-linecap="round" stroke-linejoin="round" stroke-miterlimit="10" x1="566.2" y1="634.8" x2="582.8" y2="634.8"/>
				
					<line id="XMLID_201_" fill="none" stroke="#294563" stroke-width="9" stroke-linecap="round" stroke-linejoin="round" stroke-miterlimit="10" x1="566.2" y1="659.3" x2="582.8" y2="659.3"/>
				
					<line id="XMLID_198_" fill="none" stroke="#294563" stroke-width="9" stroke-linecap="round" stroke-linejoin="round" stroke-miterlimit="10" x1="566.2" y1="683.7" x2="582.8" y2="683.7"/>
				
					<line id="XMLID_190_" fill="none" stroke="#294563" stroke-width="9" stroke-linecap="round" stroke-linejoin="round" stroke-miterlimit="10" x1="566.2" y1="708.1" x2="582.8" y2="708.1"/>
				
					<line id="XMLID_168_" fill="none" stroke="#294563" stroke-width="9" stroke-linecap="round" stroke-linejoin="round" stroke-miterlimit="10" x1="566.2" y1="732.5" x2="582.8" y2="732.5"/>
			</g>
		</g>
		<g id="XMLID_145_">
			<g id="XMLID_245_">
				<path id="XMLID_288_" fill="#009FC4" d="M479,511.7c-2.5,0-4.5-2-4.5-4.5v-25.7c0-2.5,2-4.5,4.5-4.5h28c2.5,0,4.5,2,4.5,4.5
					v25.7c0,2.5-2,4.5-4.5,4.5H479z"/>
				<g id="XMLID_284_">
					<path id="XMLID_285_" fill="#294563" d="M507,481.6v25.7h-28v-25.7H507 M507,472.6h-28c-5,0-9,4-9,9v25.7c0,5,4,9,9,9h28
						c5,0,9-4,9-9v-25.7C516,476.6,511.9,472.6,507,472.6L507,472.6z"/>
				</g>
			</g>
			<rect id="XMLID_241_" x="498.9" y="481.6" fill="#FFCC3B" width="8.1" height="23"/>
			<g id="XMLID_251_">
				<path id="XMLID_282_" fill="#009FC4" d="M451,560.6c-2.5,0-4.5-2-4.5-4.5v-48.8c0-2.5,2-4.5,4.5-4.5h67.3c2.5,0,4.5,2,4.5,4.5
					v48.8c0,2.5-2,4.5-4.5,4.5H451z"/>
				<g id="XMLID_278_">
					<path id="XMLID_279_" fill="#294563" d="M518.2,507.2v48.8H451v-48.8H518.2 M518.2,498.2H451c-5,0-9,4-9,9v48.8c0,5,4,9,9,9
						h67.3c5,0,9-4,9-9v-48.8C527.2,502.3,523.2,498.2,518.2,498.2L518.2,498.2z"/>
				</g>
			</g>
			<rect id="XMLID_242_" x="507" y="507.2" fill="#FFCC3B" width="11.3" height="42.8"/>
			<g id="XMLID_146_">
				<g id="XMLID_227_">
					<path id="XMLID_276_" fill="#009FC4" d="M451,780.9c-2.5,0-4.5-2-4.5-4.5V556.1c0-2.5,2-4.5,4.5-4.5h84c2.5,0,4.5,2,4.5,4.5
						v220.3c0,2.5-2,4.5-4.5,4.5H451z"/>
					<g id="XMLID_270_">
						<path id="XMLID_272_" fill="#294563" d="M535,556.1v220.3h-84V556.1H535 M535,547.1h-84c-5,0-9,4-9,9v220.3c0,5,4,9,9,9h84
							c5,0,9-4,9-9V556.1C544,551.1,539.9,547.1,535,547.1L535,547.1z"/>
					</g>
				</g>
				<rect id="XMLID_224_" x="518.2" y="556.1" fill="#FFCC3B" width="16.8" height="220.3"/>
				
					<line id="XMLID_221_" fill="none" stroke="#294563" stroke-width="9" stroke-linecap="round" stroke-linejoin="round" stroke-miterlimit="10" x1="464.9" y1="573.9" x2="479" y2="573.9"/>
				
					<line id="XMLID_218_" fill="none" stroke="#294563" stroke-width="9" stroke-linecap="round" stroke-linejoin="round" stroke-miterlimit="10" x1="464.9" y1="594.6" x2="479" y2="594.6"/>
				
					<line id="XMLID_215_" fill="none" stroke="#294563" stroke-width="9" stroke-linecap="round" stroke-linejoin="round" stroke-miterlimit="10" x1="464.9" y1="615.2" x2="479" y2="615.2"/>
				
					<line id="XMLID_212_" fill="none" stroke="#294563" stroke-width="9" stroke-linecap="round" stroke-linejoin="round" stroke-miterlimit="10" x1="464.9" y1="635.9" x2="479" y2="635.9"/>
				
					<line id="XMLID_209_" fill="none" stroke="#294563" stroke-width="9" stroke-linecap="round" stroke-linejoin="round" stroke-miterlimit="10" x1="464.9" y1="656.6" x2="479" y2="656.6"/>
				
					<line id="XMLID_206_" fill="none" stroke="#294563" stroke-width="9" stroke-linecap="round" stroke-linejoin="round" stroke-miterlimit="10" x1="464.9" y1="677.2" x2="479" y2="677.2"/>
				
					<line id="XMLID_193_" fill="none" stroke="#294563" stroke-width="9" stroke-linecap="round" stroke-linejoin="round" stroke-miterlimit="10" x1="464.9" y1="697.9" x2="479" y2="697.9"/>
				
					<line id="XMLID_157_" fill="none" stroke="#294563" stroke-width="9" stroke-linecap="round" stroke-linejoin="round" stroke-miterlimit="10" x1="464.9" y1="718.6" x2="479" y2="718.6"/>
				
					<line id="XMLID_150_" fill="none" stroke="#294563" stroke-width="9" stroke-linecap="round" stroke-linejoin="round" stroke-miterlimit="10" x1="464.9" y1="739.2" x2="479" y2="739.2"/>
				
					<line id="XMLID_274_" fill="none" stroke="#294563" stroke-width="9" stroke-linecap="round" stroke-linejoin="round" stroke-miterlimit="10" x1="495.9" y1="573.9" x2="509.9" y2="573.9"/>
				
					<line id="XMLID_271_" fill="none" stroke="#294563" stroke-width="9" stroke-linecap="round" stroke-linejoin="round" stroke-miterlimit="10" x1="495.9" y1="594.6" x2="509.9" y2="594.6"/>
				
					<line id="XMLID_268_" fill="none" stroke="#294563" stroke-width="9" stroke-linecap="round" stroke-linejoin="round" stroke-miterlimit="10" x1="495.9" y1="615.2" x2="509.9" y2="615.2"/>
				
					<line id="XMLID_265_" fill="none" stroke="#294563" stroke-width="9" stroke-linecap="round" stroke-linejoin="round" stroke-miterlimit="10" x1="495.9" y1="635.9" x2="509.9" y2="635.9"/>
				
					<line id="XMLID_250_" fill="none" stroke="#294563" stroke-width="9" stroke-linecap="round" stroke-linejoin="round" stroke-miterlimit="10" x1="495.9" y1="656.6" x2="509.9" y2="656.6"/>
				
					<line id="XMLID_246_" fill="none" stroke="#294563" stroke-width="9" stroke-linecap="round" stroke-linejoin="round" stroke-miterlimit="10" x1="495.9" y1="677.2" x2="509.9" y2="677.2"/>
				
					<line id="XMLID_207_" fill="none" stroke="#294563" stroke-width="9" stroke-linecap="round" stroke-linejoin="round" stroke-miterlimit="10" x1="495.9" y1="697.9" x2="509.9" y2="697.9"/>
				
					<line id="XMLID_159_" fill="none" stroke="#294563" stroke-width="9" stroke-linecap="round" stroke-linejoin="round" stroke-miterlimit="10" x1="495.9" y1="718.6" x2="509.9" y2="718.6"/>
				
					<line id="XMLID_151_" fill="none" stroke="#294563" stroke-width="9" stroke-linecap="round" stroke-linejoin="round" stroke-miterlimit="10" x1="495.9" y1="739.2" x2="509.9" y2="739.2"/>
			</g>
		</g>
	</g>
	
		<line id="XMLID_24_" fill="#E8EBF3" stroke="#294563" stroke-width="9" stroke-linecap="round" stroke-linejoin="round" stroke-miterlimit="10" x1="367.7" y1="782.2" x2="319" y2="782.2"/>
	
		<path id="XMLID_33_" fill="none" stroke="#294563" stroke-width="9" stroke-linecap="round" stroke-linejoin="round" stroke-miterlimit="10" d="
		M1043.5,782.2"/>
	
		<path id="XMLID_32_" fill="none" stroke="#294563" stroke-width="9" stroke-linecap="round" stroke-linejoin="round" stroke-miterlimit="10" d="
		M1023,782.2"/>
	<g id="XMLID_134_">
		
			<line id="XMLID_136_" fill="none" stroke="#294563" stroke-width="9" stroke-linecap="round" stroke-linejoin="round" stroke-miterlimit="10" x1="832.8" y1="279.4" x2="832.8" y2="295.4"/>
		
			<line id="XMLID_135_" fill="none" stroke="#294563" stroke-width="9" stroke-linecap="round" stroke-linejoin="round" stroke-miterlimit="10" x1="840.8" y1="287.4" x2="824.8" y2="287.4"/>
	</g>
	<g id="XMLID_701_">
		
			<line id="XMLID_703_" fill="none" stroke="#294563" stroke-width="9" stroke-linecap="round" stroke-linejoin="round" stroke-miterlimit="10" x1="792.1" y1="612" x2="792.1" y2="628"/>
		
			<line id="XMLID_702_" fill="none" stroke="#294563" stroke-width="9" stroke-linecap="round" stroke-linejoin="round" stroke-miterlimit="10" x1="800.1" y1="620" x2="784.1" y2="620"/>
	</g>
	<g id="XMLID_140_">
		
			<line id="XMLID_142_" fill="none" stroke="#294563" stroke-width="9" stroke-linecap="round" stroke-linejoin="round" stroke-miterlimit="10" x1="359.2" y1="597.3" x2="359.2" y2="613.3"/>
		
			<line id="XMLID_141_" fill="none" stroke="#294563" stroke-width="9" stroke-linecap="round" stroke-linejoin="round" stroke-miterlimit="10" x1="367.2" y1="605.3" x2="351.2" y2="605.3"/>
	</g>
	<g id="XMLID_175_">
		
			<line id="XMLID_178_" fill="none" stroke="#294563" stroke-width="9" stroke-linecap="round" stroke-linejoin="round" stroke-miterlimit="10" x1="272.1" y1="639.9" x2="272.1" y2="655.9"/>
		
			<line id="XMLID_176_" fill="none" stroke="#294563" stroke-width="9" stroke-linecap="round" stroke-linejoin="round" stroke-miterlimit="10" x1="280.1" y1="647.9" x2="264.1" y2="647.9"/>
	</g>
	<g id="XMLID_137_">
		
			<line id="XMLID_139_" fill="none" stroke="#294563" stroke-width="9" stroke-linecap="round" stroke-linejoin="round" stroke-miterlimit="10" x1="495.9" y1="410.8" x2="495.9" y2="426.8"/>
		
			<line id="XMLID_138_" fill="none" stroke="#294563" stroke-width="9" stroke-linecap="round" stroke-linejoin="round" stroke-miterlimit="10" x1="503.9" y1="418.8" x2="487.9" y2="418.8"/>
	</g>
	<g id="XMLID_183_">
		
			<line id="XMLID_363_" fill="none" stroke="#294563" stroke-width="9" stroke-linecap="round" stroke-linejoin="round" stroke-miterlimit="10" x1="351.2" y1="386.5" x2="351.2" y2="402.5"/>
		
			<line id="XMLID_202_" fill="none" stroke="#294563" stroke-width="9" stroke-linecap="round" stroke-linejoin="round" stroke-miterlimit="10" x1="359.2" y1="394.5" x2="343.2" y2="394.5"/>
	</g>
	<g id="XMLID_405_">
		
			<line id="XMLID_411_" fill="none" stroke="#294563" stroke-width="9" stroke-linecap="round" stroke-linejoin="round" stroke-miterlimit="10" x1="962.3" y1="245" x2="962.3" y2="261"/>
		
			<line id="XMLID_410_" fill="none" stroke="#294563" stroke-width="9" stroke-linecap="round" stroke-linejoin="round" stroke-miterlimit="10" x1="970.3" y1="253" x2="954.3" y2="253"/>
	</g>
	<g id="XMLID_52_">
		
			<line id="XMLID_163_" fill="none" stroke="#294563" stroke-width="9" stroke-linecap="round" stroke-linejoin="round" stroke-miterlimit="10" x1="493" y1="181.9" x2="493" y2="197.9"/>
		
			<line id="XMLID_53_" fill="none" stroke="#294563" stroke-width="9" stroke-linecap="round" stroke-linejoin="round" stroke-miterlimit="10" x1="501" y1="189.9" x2="485" y2="189.9"/>
	</g>
	<g id="XMLID_179_">
		
			<line id="XMLID_182_" fill="none" stroke="#294563" stroke-width="9" stroke-linecap="round" stroke-linejoin="round" stroke-miterlimit="10" x1="1051.5" y1="535.7" x2="1051.5" y2="551.7"/>
		
			<line id="XMLID_180_" fill="none" stroke="#294563" stroke-width="9" stroke-linecap="round" stroke-linejoin="round" stroke-miterlimit="10" x1="1059.5" y1="543.7" x2="1043.5" y2="543.7"/>
	</g>
	<g id="XMLID_382_">
		
			<line id="XMLID_424_" fill="none" stroke="#294563" stroke-width="9" stroke-linecap="round" stroke-linejoin="round" stroke-miterlimit="10" x1="1131" y1="651.3" x2="1131" y2="667.3"/>
		
			<line id="XMLID_423_" fill="none" stroke="#294563" stroke-width="9" stroke-linecap="round" stroke-linejoin="round" stroke-miterlimit="10" x1="1139" y1="659.3" x2="1123" y2="659.3"/>
	</g>
	<g id="XMLID_21_">
		<text id="XMLID_418_" transform="matrix(1 0 0 1 583.2012 872.693)"><tspan x="0" y="0" fill="#294563" font-family="'VarelaRound-Regular'" font-size="52.1021px">JA</tspan><tspan x="63.1" y="0" fill="#294563" font-family="'VarelaRound-Regular'" font-size="52.1021px" letter-spacing="-1">K</tspan><tspan x="97" y="0" fill="#294563" font-family="'VarelaRound-Regular'" font-size="52.1021px">AR</tspan><tspan x="173" y="0" fill="#294563" font-family="'VarelaRound-Regular'" font-size="52.1021px" letter-spacing="-3">T</tspan><tspan x="201.5" y="0" fill="#294563" font-family="'VarelaRound-Regular'" font-size="52.1021px">A</tspan></text>
		
			<text id="XMLID_428_" transform="matrix(1 0 0 1 640.6748 826.2574)" fill="#294563" font-family="'VarelaRound-Regular'" font-size="16.6332px" letter-spacing="3">INDONESIA</text>
	</g>
	<g id="XMLID_39_">
		<g id="XMLID_20_">
			<g id="XMLID_16_">
				<path id="XMLID_401_" fill="#FFF033" d="M677.7,236.5c-1.1,0-2.1-0.4-3-1.1c-12.9-11.2-18.7-48.5-1.3-71.5
					c11.5-15.3,17.3-32.2,17.8-39.3c0,0,0-0.1,0-0.1c0-0.2,0-0.4,0.1-0.6c0.6-3.7,3.8-6.6,7.7-6.6c1.8,0,3.5,0.6,4.9,1.8
					c8.3,6.8,23.5,21,32.6,40.8c11.4,24.6,10.2,49.6-3.6,74.3c-0.8,1.4-2.3,2.3-3.9,2.3H677.7z"/>
				<path id="XMLID_204_" fill="#294563" d="M699,121.8c0.7,0,1.4,0.2,2.1,0.7c16.1,13.2,58.4,54.9,27.9,109.4h-51.2
					c-10.9-9.5-17-43.8-0.7-65.4c12.7-16.8,18.2-34.4,18.7-41.8c0-0.1,0-0.2,0-0.3C696,122.9,697.4,121.8,699,121.8 M699,112.8
					C699,112.8,699,112.8,699,112.8c-6,0-11.2,4.5-12.1,10.4c-0.1,0.4-0.1,0.7-0.1,0.9c0,0.1,0,0.1,0,0.2
					c-0.3,5.2-4.8,20.9-16.9,36.9c-8.6,11.4-12.8,26.8-11.7,43.2c1,14.7,6.2,27.9,13.6,34.3c1.6,1.4,3.7,2.2,5.9,2.2h51.2
					c3.3,0,6.3-1.8,7.9-4.6c7.8-14,11.8-28.3,11.9-42.6c0.1-12.1-2.7-24.1-8.1-35.8c-9.5-20.6-25.3-35.4-33.9-42.4
					C704.5,113.8,701.8,112.8,699,112.8L699,112.8z"/>
			</g>
			<path id="XMLID_14_" fill="#FFCC3B" d="M728.9,232h-12.5c21.8-57.3-8.2-95-20.7-107.4c0.3-2.4,3.3-3.6,5.3-2
				C717.1,135.7,759.4,177.5,728.9,232z"/>
			
				<path id="XMLID_5_" fill="#F9C51C" stroke="#294563" stroke-width="9" stroke-linecap="round" stroke-linejoin="round" stroke-miterlimit="10" d="
				M666.2,189.9c0,0,16.7,15.3,49.1,15.3"/>
			
				<path id="XMLID_6_" fill="#F9C51C" stroke="#294563" stroke-width="9" stroke-linecap="round" stroke-linejoin="round" stroke-miterlimit="10" d="
				M731.8,158.8c0,0-9.7,12.9-28.5,12.9"/>
			<g id="XMLID_7_">
				<polygon id="XMLID_200_" fill="#C2C6CC" points="662.5,278.5 650.4,248.5 756.4,248.5 744.2,278.5 				"/>
				<path id="XMLID_195_" fill="#294563" d="M749.7,253l-8.5,21h-75.6l-8.5-21H749.7 M763.1,244h-13.4h-92.6h-13.4l5,12.4l8.5,21
					l2.3,5.6h6.1h75.6h6.1l2.3-5.6l8.5-21L763.1,244L763.1,244z"/>
			</g>
			<g id="XMLID_26_">
				<polygon id="XMLID_81_" fill="#E8EBF3" points="656.9,660.6 676.7,298.1 729,298.1 730.3,322.2 748.9,660.6 				"/>
				<path id="XMLID_78_" fill="#294563" d="M724.8,302.6l1.1,19.9l18.3,333.7h-82.5l18.3-333.7l1.1-19.9H724.8 M733.3,293.6h-8.5
					H681h-8.5l-0.5,8.5l-1.1,19.9l-18.3,333.7l-0.5,9.5h9.5h82.5h9.5l-0.5-9.5L734.8,322l-1.1-19.9L733.3,293.6L733.3,293.6z"/>
			</g>
			<polygon id="XMLID_15_" fill="#FFCC3B" points="744.1,656.1 730,656.1 710.7,302.6 724.8,302.6 725.9,322.4 			"/>
			<polygon id="XMLID_19_" fill="#C2C6CC" points="725.9,322.4 679.9,322.4 681,302.6 724.8,302.6 			"/>
			<g id="XMLID_48_">
				<path id="XMLID_191_" fill="#E8EBF3" d="M650.2,307.1c-3.4,0-6.2-2.8-6.2-6.2v-22.3c0-3.4,2.8-6.2,6.2-6.2h106.3
					c3.4,0,6.2,2.8,6.2,6.2v22.3c0,3.4-2.8,6.2-6.2,6.2H650.2z"/>
				<g id="XMLID_158_">
					<path id="XMLID_184_" fill="#294563" d="M756.5,276.9c0.9,0,1.7,0.8,1.7,1.7v22.3c0,0.9-0.8,1.7-1.7,1.7H650.2
						c-0.9,0-1.7-0.8-1.7-1.7v-22.3c0-0.9,0.8-1.7,1.7-1.7H756.5 M756.5,267.9H650.2c-5.9,0-10.7,4.8-10.7,10.7v22.3
						c0,5.9,4.8,10.7,10.7,10.7h106.3c5.9,0,10.7-4.8,10.7-10.7v-22.3C767.2,272.7,762.4,267.9,756.5,267.9L756.5,267.9z"/>
				</g>
			</g>
			<g id="XMLID_30_">
				<path id="XMLID_99_" fill="#E8EBF3" d="M650.2,251.2c-3.4,0-6.2-2.8-6.2-6.2v-11.3c0-3.4,2.8-6.2,6.2-6.2h106.3
					c3.4,0,6.2,2.8,6.2,6.2V245c0,3.4-2.8,6.2-6.2,6.2H650.2z"/>
				<g id="XMLID_92_">
					<path id="XMLID_93_" fill="#294563" d="M756.5,232c0.9,0,1.7,0.8,1.7,1.7V245c0,0.9-0.8,1.7-1.7,1.7H650.2
						c-0.9,0-1.7-0.8-1.7-1.7v-11.3c0-0.9,0.8-1.7,1.7-1.7H756.5 M756.5,223H650.2c-5.9,0-10.7,4.8-10.7,10.7V245
						c0,5.9,4.8,10.7,10.7,10.7h106.3c5.9,0,10.7-4.8,10.7-10.7v-11.3C767.2,227.8,762.4,223,756.5,223L756.5,223z"/>
				</g>
			</g>
			<path id="XMLID_28_" fill="#FFCC3B" d="M758.2,233.7V245c0,0.9-0.8,1.7-1.7,1.7h-12.2V232h12.2
				C757.4,232,758.2,232.8,758.2,233.7z"/>
			<path id="XMLID_29_" fill="#FFCC3B" d="M758.2,278.6v22.3c0,0.9-0.8,1.7-1.7,1.7h-12.2v-25.7h12.2
				C757.4,276.9,758.2,277.6,758.2,278.6z"/>
			
				<line id="XMLID_4_" fill="#F9C51C" stroke="#294563" stroke-width="9" stroke-linecap="round" stroke-linejoin="round" stroke-miterlimit="10" x1="725.9" y1="322.4" x2="712.3" y2="322.4"/>
			
				<line id="XMLID_8_" fill="#F9C51C" stroke="#294563" stroke-width="9" stroke-linecap="round" stroke-linejoin="round" stroke-miterlimit="10" x1="671.5" y1="475.4" x2="679.9" y2="475.4"/>
			<g id="XMLID_1_">
				
					<line id="XMLID_9_" fill="#F9C51C" stroke="#294563" stroke-width="9" stroke-linecap="round" stroke-linejoin="round" stroke-miterlimit="10" x1="671.8" y1="272" x2="671.8" y2="263.5"/>
				
					<line id="XMLID_10_" fill="#F9C51C" stroke="#294563" stroke-width="9" stroke-linecap="round" stroke-linejoin="round" stroke-miterlimit="10" x1="687.6" y1="272" x2="687.6" y2="263.5"/>
				
					<line id="XMLID_11_" fill="#F9C51C" stroke="#294563" stroke-width="9" stroke-linecap="round" stroke-linejoin="round" stroke-miterlimit="10" x1="703.4" y1="272" x2="703.4" y2="263.5"/>
				
					<line id="XMLID_12_" fill="#F9C51C" stroke="#294563" stroke-width="9" stroke-linecap="round" stroke-linejoin="round" stroke-miterlimit="10" x1="719.2" y1="272" x2="719.2" y2="263.5"/>
				
					<line id="XMLID_13_" fill="#F9C51C" stroke="#294563" stroke-width="9" stroke-linecap="round" stroke-linejoin="round" stroke-miterlimit="10" x1="734.9" y1="272" x2="734.9" y2="263.5"/>
			</g>
		</g>
		<g id="XMLID_31_">
			<g id="XMLID_60_">
				<path id="XMLID_76_" fill="#E8EBF3" d="M628.4,754.3c-2.5,0-4.5-2-4.5-4.5c0-20.9-7.5-38.7-22.4-52.9
					c-14-13.4-29.7-18.6-29.9-18.7c-2.1-0.7-3.4-2.8-3.1-5c0.3-2.2,2.2-3.8,4.4-3.8H827c2.2,0,4.1,1.6,4.4,3.8c0.3,2.2-1,4.3-3.1,5
					c-0.2,0-15.8,5.3-29.9,18.7c-14.9,14.2-22.4,32-22.4,52.9c0,2.5-2,4.5-4.5,4.5H628.4z"/>
				<path id="XMLID_73_" fill="#294563" d="M827,674c0,0-16.6,5.3-31.6,19.7c-12.5,11.9-23.8,29.9-23.8,56.2H628.4
					c0-26.3-11.4-44.3-23.8-56.2C589.5,679.3,573,674,573,674H827 M827,665H573c-4.4,0-8.2,3.2-8.9,7.6c-0.7,4.4,1.9,8.6,6.1,10
					c0.1,0,14.9,5,28.1,17.6c14,13.3,21,30,21,49.7c0,5,4,9,9,9h143.3c5,0,9-4,9-9c0-19.6,7.1-36.4,21-49.7
					c13.2-12.6,28-17.6,28.2-17.6c4.2-1.4,6.8-5.6,6.1-10C835.2,668.2,831.5,665,827,665L827,665z"/>
			</g>
			<path id="XMLID_37_" fill="#FFCC3B" d="M827,674c0,0-55.4,17.9-55.4,75.8h-14.6c2.1-59,31.9-72.2,31.9-72.2l1-3.7H827z"/>
			<path id="XMLID_36_" fill="#C2C6CC" d="M827,674c0,0-16.6,5.3-31.6,19.7H604.5C589.5,679.3,573,674,573,674H827z"/>
			<g id="XMLID_41_">
				<path id="XMLID_69_" fill="#E8EBF3" d="M544.1,678.5c-2.5,0-4.5-2-4.5-4.5v-17.8c0-2.5,2-4.5,4.5-4.5h311.8c2.5,0,4.5,2,4.5,4.5
					V674c0,2.5-2,4.5-4.5,4.5H544.1z"/>
				<path id="XMLID_63_" fill="#294563" d="M855.9,656.1V674H544.1v-17.8H855.9 M855.9,647.1H544.1c-5,0-9,4-9,9V674c0,5,4,9,9,9
					h311.8c5,0,9-4,9-9v-17.8C864.9,651.2,860.9,647.1,855.9,647.1L855.9,647.1z"/>
			</g>
			<rect id="XMLID_38_" x="835" y="656.1" fill="#FFCC3B" width="20.9" height="17.8"/>
			
				<line id="XMLID_27_" fill="none" stroke="#294563" stroke-width="9" stroke-linecap="round" stroke-linejoin="round" stroke-miterlimit="10" x1="800.3" y1="693.7" x2="761.6" y2="693.7"/>
		</g>
		<g id="XMLID_17_">
			<path id="XMLID_107_" fill="#5F6570" d="M687.9,751.4c-2.5,0-4.5-2-4.5-4.5v-32.2c0-2.5,2-4.5,4.5-4.5h24.2c2.5,0,4.5,2,4.5,4.5
				v32.2c0,2.5-2,4.5-4.5,4.5H687.9z"/>
			<g id="XMLID_103_">
				<path id="XMLID_104_" fill="#294563" d="M712.1,714.7v32.2h-24.2v-32.2H712.1 M712.1,705.7h-24.2c-5,0-9,4-9,9v32.2c0,5,4,9,9,9
					h24.2c5,0,9-4,9-9v-32.2C721.1,709.7,717.1,705.7,712.1,705.7L712.1,705.7z"/>
			</g>
		</g>
	</g>
	<g id="XMLID_18_">
		<path id="XMLID_86_" fill="#E8EBF3" d="M502.3,767.2c-2.5,0-4.5-2-4.5-4.5v-6.3c0-2.5,2-4.5,4.5-4.5h395.4c2.5,0,4.5,2,4.5,4.5
			v6.3c0,2.5-2,4.5-4.5,4.5H502.3z"/>
		<path id="XMLID_83_" fill="#294563" d="M897.7,756.4v6.3H502.3v-6.3H897.7 M897.7,747.4H502.3c-5,0-9,4-9,9v6.3c0,5,4,9,9,9h395.4
			c5,0,9-4,9-9v-6.3C906.7,751.4,902.7,747.4,897.7,747.4L897.7,747.4z"/>
	</g>
	<g id="XMLID_22_">
		<path id="XMLID_90_" fill="#E8EBF3" d="M464.5,781.7c-2.5,0-4.5-2-4.5-4.5v-6.3c0-2.5,2-4.5,4.5-4.5h471c2.5,0,4.5,2,4.5,4.5v6.3
			c0,2.5-2,4.5-4.5,4.5H464.5z"/>
		<path id="XMLID_87_" fill="#294563" d="M935.5,770.9v6.3h-471v-6.3H935.5 M935.5,761.9h-471c-5,0-9,4-9,9v6.3c0,5,4,9,9,9h471
			c5,0,9-4,9-9v-6.3C944.5,765.9,940.5,761.9,935.5,761.9L935.5,761.9z"/>
	</g>
	
		<polyline id="XMLID_147_" fill="none" stroke="#294563" stroke-width="9" stroke-linecap="round" stroke-linejoin="round" stroke-miterlimit="10" points="
		1023,782.2 807.3,782.2 592.7,782.2 406,782.2 	"/>
	<g id="XMLID_35_">
		<g id="XMLID_96_">
			<path id="XMLID_112_" fill="#7EE044" d="M991.7,761c-7.4,0-14.3-3.8-19.1-10.3c-15.5-21.1,4.2-49.7,13.4-61
				c0.2-0.2,0.4-0.5,0.6-0.7l0.1-0.1c1.3-1.5,3.1-2.4,5-2.4c1.9,0,3.7,0.9,5,2.4c7.4,8.9,30.3,39.7,14.1,61.8
				c-2.7,3.6-6.1,6.5-9.9,8.2C998,760.3,994.9,761,991.7,761z"/>
			<path id="XMLID_109_" fill="#294563" d="M991.7,691c0.6,0,1.1,0.3,1.6,0.8c6.9,8.4,28.3,36.8,14,56.3c-2.3,3.2-5.1,5.4-8.1,6.8
				c-2.4,1.1-4.9,1.7-7.4,1.7c-5.7,0-11.4-2.8-15.5-8.5c-13.9-18.9,5.8-46.3,13.3-55.5c0.2-0.3,0.4-0.5,0.6-0.8
				C990.6,691.2,991.1,691,991.7,691 M991.7,682c-3.2,0-6.3,1.5-8.5,4l-0.1,0.1c-0.2,0.3-0.4,0.5-0.7,0.8c-4,5-11.5,15-16,26.4
				c-7.8,19.6-3,32.6,2.5,40c5.7,7.7,14,12.1,22.8,12.1c3.9,0,7.6-0.8,11.2-2.5c4.5-2.1,8.5-5.4,11.6-9.7c5.6-7.6,10.4-20.9,2-41.1
				c-4.8-11.5-12.3-21.4-16.3-26.3C998,683.4,994.9,682,991.7,682L991.7,682z"/>
		</g>
		<path id="XMLID_70_" fill="#B1F784" d="M1007.2,748c-2.3,3.2-5.1,5.4-8.1,6.8c10.9-26.5-3.5-52.9-9.6-62.3
			c0.2-0.3,0.4-0.5,0.6-0.8c0.9-1,2.3-1,3.1,0C1000.2,700.1,1021.5,728.5,1007.2,748z"/>
		
			<polyline id="XMLID_25_" fill="none" stroke="#294563" stroke-width="9" stroke-linecap="round" stroke-linejoin="round" stroke-miterlimit="10" points="
			991.7,782.2 991.7,744 999.9,735.8 		"/>
		
			<polyline id="XMLID_34_" fill="none" stroke="#294563" stroke-width="9" stroke-linecap="round" stroke-linejoin="round" stroke-miterlimit="10" points="
			991.7,744 991.7,727.7 987.7,723.7 		"/>
	</g>
	<g id="XMLID_42_">
		<g id="XMLID_71_">
			<path id="XMLID_108_" fill="#7EE044" d="M1082.1,761c-7.4,0-14.3-3.8-19.1-10.3c-15.5-21.1,4.2-49.7,13.4-61
				c0.2-0.2,0.4-0.5,0.6-0.7l0.1-0.1c1.3-1.5,3.1-2.4,5-2.4c1.9,0,3.7,0.9,5,2.4c7.4,8.9,30.3,39.7,14.1,61.8
				c-2.7,3.6-6.1,6.5-9.9,8.2C1088.4,760.3,1085.3,761,1082.1,761z"/>
			<path id="XMLID_97_" fill="#294563" d="M1082.1,691c0.6,0,1.1,0.3,1.6,0.8c6.9,8.4,28.3,36.8,14,56.3c-2.3,3.2-5.1,5.4-8.1,6.8
				c-2.4,1.1-4.9,1.7-7.4,1.7c-5.7,0-11.4-2.8-15.5-8.5c-13.9-18.9,5.8-46.3,13.3-55.5c0.2-0.3,0.4-0.5,0.6-0.8
				C1080.9,691.2,1081.5,691,1082.1,691 M1082.1,682c-3.2,0-6.3,1.5-8.5,4l-0.1,0.1c-0.2,0.3-0.4,0.5-0.7,0.8c-4,5-11.5,15-16,26.4
				c-7.8,19.6-3,32.6,2.5,40c5.7,7.7,14,12.1,22.8,12.1c3.9,0,7.6-0.8,11.2-2.5c4.5-2.1,8.5-5.4,11.6-9.7c5.6-7.6,10.4-20.9,2-41.1
				c-4.8-11.5-12.3-21.4-16.3-26.3C1088.4,683.4,1085.3,682,1082.1,682L1082.1,682z"/>
		</g>
		<path id="XMLID_65_" fill="#B1F784" d="M1097.6,748c-2.3,3.2-5.1,5.4-8.1,6.8c10.9-26.5-3.5-52.9-9.6-62.3
			c0.2-0.3,0.4-0.5,0.6-0.8c0.9-1,2.3-1,3.1,0C1090.6,700.1,1111.9,728.5,1097.6,748z"/>
		
			<polyline id="XMLID_59_" fill="none" stroke="#294563" stroke-width="9" stroke-linecap="round" stroke-linejoin="round" stroke-miterlimit="10" points="
			1082.1,782.2 1082.1,744 1090.3,735.8 		"/>
		
			<polyline id="XMLID_58_" fill="none" stroke="#294563" stroke-width="9" stroke-linecap="round" stroke-linejoin="round" stroke-miterlimit="10" points="
			1082.1,744 1082.1,727.7 1078.1,723.7 		"/>
	</g>
	<g id="XMLID_114_">
		<g id="XMLID_118_">
			<path id="XMLID_123_" fill="#7EE044" d="M426.4,761c-7.4,0-14.3-3.8-19.1-10.3c-15.5-21.1,4.2-49.7,13.4-61
				c0.2-0.2,0.4-0.5,0.6-0.7l0.1-0.1c1.3-1.5,3.1-2.4,5-2.4c1.9,0,3.7,0.9,5,2.4c7.4,8.9,30.3,39.7,14.1,61.8
				c-2.7,3.6-6.1,6.5-9.9,8.2C432.7,760.3,429.6,761,426.4,761z"/>
			<path id="XMLID_120_" fill="#294563" d="M426.4,691c0.6,0,1.1,0.3,1.6,0.8c6.9,8.4,28.3,36.8,14,56.3c-2.3,3.2-5.1,5.4-8.1,6.8
				c-2.4,1.1-4.9,1.7-7.4,1.7c-5.7,0-11.4-2.8-15.5-8.5c-13.9-18.9,5.8-46.3,13.3-55.5c0.2-0.3,0.4-0.5,0.6-0.8
				C425.2,691.2,425.8,691,426.4,691 M426.4,682c-3.2,0-6.3,1.5-8.5,4l-0.1,0.1c-0.2,0.3-0.4,0.5-0.7,0.8c-4,5-11.5,15-16,26.4
				c-7.8,19.6-3,32.6,2.5,40c5.7,7.7,14,12.1,22.8,12.1c3.9,0,7.6-0.8,11.2-2.5c4.5-2.1,8.5-5.4,11.6-9.7c5.6-7.6,10.4-20.9,2-41.1
				c-4.8-11.5-12.3-21.4-16.3-26.3C432.7,683.4,429.6,682,426.4,682L426.4,682z"/>
		</g>
		<path id="XMLID_117_" fill="#B1F784" d="M441.9,748c-2.3,3.2-5.1,5.4-8.1,6.8c10.9-26.5-3.5-52.9-9.6-62.3
			c0.2-0.3,0.4-0.5,0.6-0.8c0.9-1,2.3-1,3.1,0C434.9,700.1,456.2,728.5,441.9,748z"/>
		
			<polyline id="XMLID_116_" fill="none" stroke="#294563" stroke-width="9" stroke-linecap="round" stroke-linejoin="round" stroke-miterlimit="10" points="
			426.4,782.2 426.4,744 434.6,735.8 		"/>
		
			<polyline id="XMLID_115_" fill="none" stroke="#294563" stroke-width="9" stroke-linecap="round" stroke-linejoin="round" stroke-miterlimit="10" points="
			426.4,744 426.4,727.7 422.3,723.7 		"/>
	</g>
	<g id="XMLID_124_">
		<g id="XMLID_128_">
			<path id="XMLID_133_" fill="#7EE044" d="M330.9,761c-7.4,0-14.3-3.8-19.1-10.3c-15.5-21.1,4.2-49.7,13.4-61
				c0.2-0.2,0.4-0.5,0.6-0.7l0.1-0.1c1.3-1.5,3.1-2.4,5-2.4c1.9,0,3.7,0.9,5,2.4c7.4,8.9,30.3,39.7,14.1,61.8
				c-2.7,3.6-6.1,6.5-9.9,8.2C337.2,760.3,334.1,761,330.9,761z"/>
			<path id="XMLID_130_" fill="#294563" d="M330.9,691c0.6,0,1.1,0.3,1.6,0.8c6.9,8.4,28.3,36.8,14,56.3c-2.3,3.2-5.1,5.4-8.1,6.8
				c-2.4,1.1-4.9,1.7-7.4,1.7c-5.7,0-11.4-2.8-15.5-8.5c-13.9-18.9,5.8-46.3,13.3-55.5c0.2-0.3,0.4-0.5,0.6-0.8
				C329.8,691.2,330.3,691,330.9,691 M330.9,682c-3.2,0-6.3,1.5-8.5,4l-0.1,0.1c-0.2,0.3-0.4,0.5-0.7,0.8c-4,5-11.5,15-16,26.4
				c-7.8,19.6-3,32.6,2.5,40c5.7,7.7,14,12.1,22.8,12.1c3.9,0,7.6-0.8,11.2-2.5c4.5-2.1,8.5-5.4,11.6-9.7c5.6-7.6,10.4-20.9,2-41.1
				c-4.8-11.5-12.3-21.4-16.3-26.3C337.2,683.4,334.1,682,330.9,682L330.9,682z"/>
		</g>
		<path id="XMLID_127_" fill="#B1F784" d="M346.4,748c-2.3,3.2-5.1,5.4-8.1,6.8c10.9-26.5-3.5-52.9-9.6-62.3
			c0.2-0.3,0.4-0.5,0.6-0.8c0.9-1,2.3-1,3.1,0C339.4,700.1,360.7,728.5,346.4,748z"/>
		
			<polyline id="XMLID_126_" fill="none" stroke="#294563" stroke-width="9" stroke-linecap="round" stroke-linejoin="round" stroke-miterlimit="10" points="
			330.9,782.2 330.9,744 339.1,735.8 		"/>
		
			<polyline id="XMLID_125_" fill="none" stroke="#294563" stroke-width="9" stroke-linecap="round" stroke-linejoin="round" stroke-miterlimit="10" points="
			330.9,744 330.9,727.7 326.9,723.7 		"/>
	</g>
	
		<line id="XMLID_113_" fill="none" stroke="#294563" stroke-width="9" stroke-linecap="round" stroke-linejoin="round" stroke-miterlimit="10" x1="1068.3" y1="782.2" x2="1105" y2="782.2"/>
	
		<line id="XMLID_170_" fill="#0E8BAD" stroke="#294563" stroke-width="9" stroke-linecap="round" stroke-linejoin="round" stroke-miterlimit="10" x1="573" y1="471.7" x2="573" y2="431.7"/>
	<g id="XMLID_44_">
		<g id="XMLID_51_">
			<path id="XMLID_421_" fill="#FAFEFF" d="M910.9,397c-1.8,0-3.5-0.8-4.8-2.1c-1.2-1.4-1.8-3.2-1.5-5c0.8-5.9,4-11,8.8-14.3
				c0.8-10.2,9.4-18.2,19.8-18.2c2.2,0,4.4,0.4,6.4,1.1c4.6-7.1,12.4-11.5,21.1-11.5c1.6,0,3.2,0.1,4.7,0.4
				c4.5-17.1,20.2-29.5,38.3-29.5c20.4,0,37.2,15.5,39.4,35.3c1.2-0.2,2.4-0.3,3.7-0.3c10.3,0,18.9,6.9,21.3,16.5
				c9.9,2,17.8,10.3,18.9,20.6c0.2,1.8-0.4,3.6-1.6,4.9c-1.2,1.3-2.9,2.1-4.7,2.1H910.9z"/>
			<path id="XMLID_390_" fill="#294563" d="M1003.7,322.4c19.4,0,35.1,15.7,35.1,35.1c0,0.6,0,1.2,0,1.8c2.4-1.2,5.1-1.9,8-1.9
				c9.2,0,16.7,7,17.5,16c9.5,0.4,17.3,7.7,18.3,17.1c0.1,1.1-0.7,2.1-1.8,2.1H910.9c-1.1,0-2-1-1.8-2.1c0.7-5.4,4.1-10,8.8-12.3
				c0-0.3,0-0.6,0-0.9c0-8.5,6.9-15.3,15.3-15.3c3.1,0,6,0.9,8.4,2.5c3.1-7.6,10.5-12.9,19.1-12.9c2.9,0,5.7,0.6,8.2,1.7
				C971,335.8,985.8,322.4,1003.7,322.4 M1003.7,313.4c-18.9,0-35.3,12-41.5,29.1c-0.5,0-1,0-1.5,0c-9.1,0-17.4,4.1-22.9,10.8
				c-1.5-0.3-3-0.4-4.6-0.4c-12,0-22,8.7-24,20.2c-4.9,4-8.2,9.8-9.1,16.2c-0.4,3.1,0.5,6.2,2.6,8.6c2.1,2.3,5,3.7,8.1,3.7h169.8
				c3.1,0,6-1.3,8-3.6c2.1-2.3,3-5.4,2.7-8.4c-1.2-11.3-9.3-20.7-19.8-23.9c-1.4-3.8-3.8-7.3-6.9-10.2c-4.9-4.5-11.2-7-17.9-7
				C1042.6,328.5,1024.9,313.4,1003.7,313.4L1003.7,313.4z"/>
		</g>
		<g id="XMLID_419_">
			<path id="XMLID_439_" fill="#FFCC3B" d="M1032.2,337c-5.8-4.2-12.9-6.7-20.6-6.7c-17.9,0-32.7,13.4-34.8,30.7
				c-2.5-1.1-5.3-1.7-8.2-1.7c-8.6,0-16.1,5.3-19.1,12.9c-2.4-1.6-5.3-2.5-8.4-2.5c-8.5,0-15.3,6.9-15.3,15.3c0,0.3,0,0.6,0,0.9
				c-2.9,1.4-5.3,3.7-6.9,6.6h-7.9c-1.1,0-2-1-1.8-2.1c0.7-5.4,4.1-10,8.8-12.3c0-0.3,0-0.6,0-0.9c0-8.5,6.9-15.3,15.3-15.3
				c3.1,0,6,0.9,8.4,2.5c3.1-7.6,10.5-12.9,19.1-12.9c2.9,0,5.7,0.6,8.2,1.7c2.2-17.3,16.9-30.7,34.8-30.7
				C1015.4,322.4,1025.8,328.2,1032.2,337z"/>
		</g>
	</g>
	<g id="XMLID_49_">
		<g id="XMLID_149_">
			<path id="XMLID_440_" fill="#FAFEFF" d="M411,316.4c-1.8,0-3.5-0.8-4.7-2.1c-1.2-1.3-1.8-3.1-1.6-4.9
				c1.1-10.3,8.9-18.6,18.9-20.6c2.5-9.6,11.1-16.5,21.3-16.5c1.2,0,2.5,0.1,3.7,0.3c2.2-19.8,19-35.3,39.4-35.3
				c18.1,0,33.8,12.3,38.3,29.5c1.5-0.3,3.1-0.4,4.7-0.4c8.7,0,16.5,4.4,21.1,11.5c2.1-0.7,4.2-1.1,6.4-1.1c10.4,0,18.9,8,19.8,18.2
				c4.8,3.3,8.1,8.5,8.8,14.3c0.2,1.8-0.3,3.7-1.5,5c-1.2,1.4-2.9,2.2-4.8,2.2H411z"/>
			<path id="XMLID_434_" fill="#294563" d="M488,241.8c17.9,0,32.7,13.4,34.8,30.7c2.5-1.1,5.3-1.7,8.2-1.7
				c8.7,0,16.1,5.3,19.1,12.9c2.4-1.6,5.3-2.5,8.4-2.5c8.5,0,15.3,6.9,15.3,15.3c0,0.3,0,0.6,0,0.9c4.7,2.3,8.1,6.9,8.8,12.3
				c0.1,1.1-0.7,2.1-1.8,2.1H411c-1.1,0-1.9-1-1.8-2.1c1-9.3,8.7-16.7,18.3-17.1c0.8-9,8.3-16,17.5-16c2.9,0,5.6,0.7,8,1.9
				c0-0.6,0-1.2,0-1.8C452.9,257.5,468.6,241.8,488,241.8 M488,232.8c-21.2,0-38.9,15-43.2,35c-6.6,0-13,2.5-17.9,7
				c-3.1,2.8-5.4,6.3-6.9,10.2c-10.6,3.2-18.6,12.6-19.8,23.9c-0.3,3.1,0.7,6.1,2.7,8.4c2,2.3,5,3.6,8,3.6h169.8
				c3.1,0,6.1-1.3,8.1-3.7c2.1-2.3,3-5.5,2.6-8.6c-0.8-6.4-4.1-12.2-9.1-16.2c-2-11.5-12-20.2-24-20.2c-1.5,0-3.1,0.1-4.6,0.4
				c-5.5-6.8-13.8-10.8-22.9-10.8c-0.5,0-1,0-1.5,0C523.3,244.8,506.8,232.8,488,232.8L488,232.8z"/>
		</g>
		<g id="XMLID_50_">
			<path id="XMLID_449_" fill="#FFCC3B" d="M459.5,256.3c5.8-4.2,12.9-6.7,20.6-6.7c17.9,0,32.7,13.4,34.8,30.7
				c2.5-1.1,5.3-1.7,8.2-1.7c8.6,0,16.1,5.3,19.1,12.9c2.4-1.6,5.3-2.5,8.4-2.5c8.5,0,15.3,6.9,15.3,15.3c0,0.3,0,0.6,0,0.9
				c2.9,1.4,5.3,3.7,6.9,6.6h7.9c1.1,0,2-1,1.8-2.1c-0.7-5.4-4.1-10-8.8-12.3c0-0.3,0-0.6,0-0.9c0-8.5-6.9-15.3-15.3-15.3
				c-3.1,0-6,0.9-8.4,2.5c-3.1-7.6-10.5-12.9-19.1-12.9c-2.9,0-5.7,0.6-8.2,1.7c-2.2-17.3-16.9-30.7-34.8-30.7
				C476.3,241.8,465.9,247.5,459.5,256.3z"/>
		</g>
	</g>
</g>
</svg>
